PathFileType	4	(X/Y/Z)	Kaydara	
DataRate	CameraRate	NumFrames	NumMarkers	Units	OrigDataRate	OrigDataStartFrame	OrigNumFrames	
60.00	60.00	4	74	mm	60.00	209	242	
Frame#	Time	Z_lasi			Z_rasi			Z_rpsi			Z_lpsi			Z_fneck			Z_bneck			Z_fhead			Z_rhead			Z_lhead			Z_rshld			Z_relbtop			Z_relbext			Z_relblow			Z_rwrext			Z_rwrtop			Z_rwrlow			Z_lshld			Z_lelbext			Z_lelblow			Z_lelbtop			Z_lwrext			Z_lwrtop			Z_rtopleg			Z_ltopleg			Z_rkneefr			Z_rkneebk			Z_rkneeis			Z_lkneefr			Z_lknssbk			Z_lkneeis			Z_rankfr			Z_rankis			Z_rankbk			Z_lankfr			Z_lankbk			Z_lankis			A_lasi			A_rasi			A_rpsi			A_lpsi			A_fneck			A_bneck			A_fhead			A_rhead			A_lhead			A_rshld			A_relbtop			A_relbext			A_relblow			A_rwrext			A_rwrtop			A_rwrlow			A_lshld			A_lelbext			A_lelblow			A_lelbtop			A_lwrext			A_lwrtop			A_lwrlow			A_rtopleg			A_ltopleg			A_rkneefr			A_rkneebk			A_rkneeis			A_lkneefr			A_lknssbk			A_lkneeis			A_rankfr			A_rankis			A_rankbk			A_lankfr			A_lankbk			A_lankis			Z_lwrlow			
		X1	Y1	Z1	X2	Y2	Z2	X3	Y3	Z3	X4	Y4	Z4	X5	Y5	Z5	X6	Y6	Z6	X7	Y7	Z7	X8	Y8	Z8	X9	Y9	Z9	X10	Y10	Z10	X11	Y11	Z11	X12	Y12	Z12	X13	Y13	Z13	X14	Y14	Z14	X15	Y15	Z15	X16	Y16	Z16	X17	Y17	Z17	X18	Y18	Z18	X19	Y19	Z19	X20	Y20	Z20	X21	Y21	Z21	X22	Y22	Z22	X23	Y23	Z23	X24	Y24	Z24	X25	Y25	Z25	X26	Y26	Z26	X27	Y27	Z27	X28	Y28	Z28	X29	Y29	Z29	X30	Y30	Z30	X31	Y31	Z31	X32	Y32	Z32	X33	Y33	Z33	X34	Y34	Z34	X35	Y35	Z35	X36	Y36	Z36	X37	Y37	Z37	X38	Y38	Z38	X39	Y39	Z39	X40	Y40	Z40	X41	Y41	Z41	X42	Y42	Z42	X43	Y43	Z43	X44	Y44	Z44	X45	Y45	Z45	X46	Y46	Z46	X47	Y47	Z47	X48	Y48	Z48	X49	Y49	Z49	X50	Y50	Z50	X51	Y51	Z51	X52	Y52	Z52	X53	Y53	Z53	X54	Y54	Z54	X55	Y55	Z55	X56	Y56	Z56	X57	Y57	Z57	X58	Y58	Z58	X59	Y59	Z59	X60	Y60	Z60	X61	Y61	Z61	X62	Y62	Z62	X63	Y63	Z63	X64	Y64	Z64	X65	Y65	Z65	X66	Y66	Z66	X67	Y67	Z67	X68	Y68	Z68	X69	Y69	Z69	X70	Y70	Z70	X71	Y71	Z71	X72	Y72	Z72	X73	Y73	Z73	X74	Y74	Z74	

1	3.467	-266.97500	1090.53772	-45.40326	-447.95372	1096.39870	-149.76099	-376.90269	1125.90073	-334.36787	-162.58497	1115.66368	-205.28851	-373.33138	1448.04626	-171.28700	-327.03293	1517.56119	-265.46381	-473.58082	1615.60944	-97.70671	-503.19527	1590.12085	-261.33265	-376.10668	1659.51630	-230.04341	-469.01173	1413.55911	-367.66064	-528.90064	1090.24765	-392.19917	-486.98395	1070.25002	-456.55479	-440.46665	1055.52475	-415.79765	-573.31139	868.45734	-402.40841	-598.21198	887.40646	-368.57849	-566.37634	884.25186	-339.18781	-197.08996	1484.81476	-102.56227	-97.31668	1164.83238	-43.61335	-154.39375	1138.28651	-81.80982	-152.58136	1164.81972	8.34176	-165.68762	905.69695	28.16201	-133.73797	914.17160	62.89108	-433.27427	931.26999	-338.40378	-167.45129	888.00621	-90.68085	-438.48595	429.05930	-266.10382	-395.48946	453.99620	-341.84303	-347.44835	439.79744	-228.57359	-208.90141	417.23911	-126.62667	-180.19045	464.07360	-221.54408	-288.94205	416.92257	-174.69746	-420.13493	187.10138	-293.76236	-376.84059	184.76971	-243.76532	-351.99249	179.22070	-325.13527	-185.61314	162.91002	-228.29395	-213.54496	180.19436	-302.51730	-256.06787	170.51685	-238.49064	-421.88339	1020.23636	1190.84984	-332.07436	1029.64928	1320.72083	-460.84900	1039.82178	1419.74091	-534.22272	1036.26282	1250.80521	-408.79742	1372.38983	1263.18481	-487.09023	1398.83713	1377.80396	-405.84141	1590.10651	1218.09547	-366.86577	1552.88239	1381.85150	-521.82800	1534.72198	1329.82407	-344.83128	1360.93445	1452.04041	-254.81382	1086.18790	1495.35446	-293.98209	1066.22887	1542.29111	-302.42199	1057.82059	1473.68179	-160.94097	870.30228	1430.80139	-199.13631	864.16031	1452.35458	-176.06049	876.20483	1391.99356	-521.62346	1358.82874	1169.56802	-570.14061	1057.34055	1136.24596	-577.12029	1048.03101	1184.31076	-518.18573	1050.93239	1149.19662	-550.66566	827.25319	1093.18260	-512.61505	837.58347	1068.15048	-518.36922	823.62114	1121.59683	-399.75407	867.28783	1478.85406	-500.35030	866.84944	1142.68509	-488.82614	403.37257	1342.19330	-491.00182	442.25151	1446.15692	-401.14006	392.52098	1407.90192	-296.05585	474.50249	1283.27393	-360.18677	476.45542	1179.75525	-230.15736	466.99020	1195.14122	-449.56917	157.89622	1435.58136	-486.66500	152.94001	1372.22321	-531.38813	148.13509	1444.76532	-328.44074	188.78674	1227.31972	-398.40641	198.57010	1223.44887	-354.96452	204.08325	1300.45837	-97.54582	919.39087	34.41859 
2	3.483	-265.24635	1089.11087	-47.62513	-448.27343	1096.46233	-148.94750	-381.13358	1126.47957	-335.37632	-164.63902	1114.20769	-210.72884	-371.55819	1448.47885	-172.25813	-326.37924	1517.63855	-267.00134	-470.57034	1618.71674	-98.65856	-501.41312	1592.25952	-261.82243	-373.31505	1660.31113	-231.76598	-469.83803	1413.03864	-367.80842	-529.80289	1089.37149	-390.45727	-488.55499	1069.38492	-455.31662	-441.53561	1054.87885	-415.20050	-573.66348	867.52396	-400.05066	-598.02437	886.28906	-365.86731	-566.09879	883.34183	-336.44493	-193.73655	1483.98041	-106.51711	-89.37599	1165.38872	-48.77949	-146.72200	1138.25058	-86.16740	-143.91206	1164.81186	3.97104	-154.79950	905.60768	22.68423	-123.27482	914.16748	57.81918	-439.57077	931.62918	-338.01197	-167.67420	886.57509	-98.08463	-443.34129	428.68916	-264.87679	-401.84834	454.17114	-341.35056	-351.83460	440.27428	-229.02138	-209.44143	419.56528	-135.12814	-184.25669	461.68938	-232.83829	-289.60712	417.20104	-189.19762	-422.24743	186.87569	-293.22441	-378.06080	185.02899	-243.72896	-354.32587	179.87835	-325.34904	-186.67521	161.46269	-231.43730	-212.29193	177.93858	-307.03678	-256.02039	170.29085	-242.83691	-412.26246	1020.96947	1192.61940	-322.03033	1029.21501	1322.30469	-449.64001	1039.32892	1421.77490	-523.67523	1036.70715	1253.28880	-398.56129	1372.62482	1265.84511	-475.55805	1399.55994	1381.76163	-394.05949	1589.52164	1220.20729	-354.44805	1552.63245	1383.80234	-509.85470	1535.82993	1332.86194	-332.46979	1359.95377	1453.39935	-233.12344	1090.24681	1494.53720	-268.36803	1066.44325	1543.13461	-279.74508	1061.21361	1473.81622	-132.43408	890.16533	1401.91498	-169.69551	880.12444	1424.99344	-149.84868	900.19409	1364.74304	-513.52345	1359.30222	1174.36256	-565.50468	1057.75307	1144.28444	-569.48223	1048.82126	1192.57385	-512.83459	1051.45920	1154.01649	-547.52892	827.70981	1100.16678	-511.11027	838.19160	1072.95319	-513.83018	824.45717	1126.53999	-389.30363	866.76109	1480.25375	-490.33184	866.96922	1144.00047	-483.25123	403.87047	1342.76245	-485.77480	442.80914	1446.71967	-396.22772	391.77364	1409.31824	-287.84580	472.06360	1289.23523	-354.50104	473.39733	1186.39786	-224.57748	465.36942	1199.22493	-449.19868	157.62587	1435.19135	-484.66621	153.31532	1373.37463	-530.22003	149.17197	1445.25604	-297.08107	183.77798	1227.45911	-367.57095	187.07817	1226.21628	-321.94668	194.96750	1300.55405	-86.72174	920.29457	29.55368 
3	3.500	-263.86614	1089.03328	-50.72955	-448.56590	1096.70197	-148.26397	-385.46406	1127.87758	-336.41621	-167.16471	1114.22752	-216.63679	-369.36882	1450.10361	-172.59901	-325.61348	1518.86505	-267.95322	-467.64137	1622.73270	-98.95926	-499.58004	1595.37277	-261.89489	-370.67780	1662.28409	-233.03715	-470.57407	1413.36136	-367.32365	-530.25230	1088.92860	-388.08060	-489.87282	1069.42421	-453.47046	-442.01195	1054.96384	-414.17885	-572.84054	866.97182	-397.49989	-596.70517	885.48019	-362.60929	-564.70352	882.57439	-333.52226	-189.89532	1483.56567	-110.32575	-81.44200	1166.32668	-53.70079	-138.44627	1138.59711	-90.80490	-135.03765	1165.33127	-0.34279	-144.62595	906.47499	17.28244	-113.16646	914.36157	52.50237	-445.30197	932.24686	-338.70876	-168.25413	887.38899	-104.57158	-448.03478	428.76926	-263.43260	-408.46756	454.60953	-340.41267	-356.21933	441.29883	-229.25886	-211.70605	420.83805	-142.37106	-180.73248	463.28842	-237.64914	-288.20959	419.93912	-199.21150	-424.44447	186.99594	-292.73270	-379.60194	185.63097	-243.75992	-356.78875	181.04593	-325.58708	-184.92643	162.93268	-230.89630	-207.12814	178.52787	-308.18050	-254.10458	172.59937	-246.14418	-402.28237	1020.89058	1193.95508	-311.51777	1028.34061	1323.37799	-438.80165	1038.27286	1423.34488	-513.36277	1036.42357	1255.14839	-388.37334	1372.20428	1268.65974	-464.29100	1399.94232	1385.85648	-382.14413	1588.02505	1222.24136	-341.95877	1552.00684	1385.70999	-497.74719	1536.59958	1335.89661	-320.36297	1358.29147	1455.31128	-212.74752	1094.01077	1493.41171	-244.42673	1065.39200	1542.50107	-257.72713	1064.69444	1472.53174	-106.03284	916.13396	1373.63342	-142.42202	901.69334	1396.55014	-125.27042	930.79201	1338.61893	-504.66309	1359.73618	1178.75847	-560.48016	1058.22350	1151.64368	-561.67908	1049.40697	1200.12161	-507.28615	1051.80206	1158.31169	-544.26994	827.96448	1107.03857	-509.70901	838.62961	1077.59926	-507.34592	824.60381	1130.29678	-378.83457	866.06613	1481.34628	-480.20477	865.62134	1145.48096	-478.10711	404.21528	1342.67899	-480.16151	443.08910	1446.99249	-391.34892	391.05801	1410.05707	-279.72898	468.60806	1295.45120	-349.32262	468.89236	1194.04381	-219.76116	461.73157	1203.24699	-447.57874	157.58948	1436.41510	-482.63664	153.59813	1374.29108	-528.74584	150.20651	1445.80063	-266.85944	180.20464	1226.71448	-337.61414	177.13428	1228.49777	-289.66158	187.78345	1300.62363	-76.71859	920.99113	24.53506 
4	3.517	-263.04157	1090.67345	-54.52990	-448.72040	1097.98500	-148.67754	-389.63665	1129.64256	-338.15712	-169.86341	1115.88150	-223.01113	-367.69333	1452.60773	-172.23045	-324.58206	1520.66010	-268.77325	-464.20036	1627.05582	-99.16505	-497.30595	1598.76740	-261.62769	-367.49725	1664.51141	-234.03194	-471.46736	1414.98657	-366.85841	-530.15900	1089.56253	-384.91299	-490.61584	1070.74913	-451.09749	-441.90575	1056.44554	-412.82700	-571.00353	867.28355	-395.07648	-594.25285	885.37613	-359.80663	-562.16850	882.63336	-330.70736	-185.90237	1483.92120	-114.14362	-73.53061	1168.00194	-59.00371	-130.40713	1139.74083	-95.80770	-126.75848	1166.49307	-5.19989	-135.07092	908.24356	11.69100	-103.26605	915.38994	46.79682	-450.23972	932.72186	-340.34664	-169.19733	890.11154	-110.06113	-453.47603	429.21211	-262.43017	-414.66293	455.46265	-339.69769	-361.21315	442.55192	-229.21436	-211.21248	424.37527	-145.37450	-173.85479	464.80549	-239.25797	-285.74127	422.28523	-204.92786	-426.55556	187.40553	-292.63996	-381.65871	186.60088	-243.85347	-358.98842	182.58961	-326.03134	-182.05425	164.52431	-229.66808	-200.20372	179.30676	-307.85923	-250.82262	174.75246	-248.41742	-391.89793	1020.04784	1194.96231	-300.74387	1027.15927	1324.14658	-427.76405	1036.38977	1424.17084	-503.02040	1035.17899	1256.46202	-378.12325	1371.10352	1271.41037	-453.05450	1399.84314	1389.61349	-370.09312	1585.88684	1224.08554	-329.33815	1550.84167	1387.77252	-485.73715	1536.79199	1338.84491	-308.07510	1355.70419	1457.12494	-194.29951	1096.94717	1491.61346	-223.25924	1062.92984	1538.87299	-237.02093	1068.19473	1468.37250	-81.18957	947.70081	1347.49481	-116.14940	926.56425	1367.08801	-101.55739	966.88721	1315.72388	-495.64629	1359.81171	1183.00186	-554.63673	1058.79410	1158.06412	-553.17150	1049.92310	1206.47995	-501.32271	1052.15172	1161.88675	-541.06377	828.00499	1113.29895	-508.35682	838.80913	1082.10693	-499.80034	823.97758	1133.06412	-368.04722	865.24582	1482.30209	-468.85086	862.96547	1146.52512	-471.78097	404.45713	1343.51166	-473.80653	443.49129	1447.42844	-385.71842	389.82697	1411.05408	-272.11491	464.58733	1301.59088	-344.65302	463.34972	1202.05490	-215.15503	456.72375	1207.91344	-445.87219	157.35621	1437.46704	-480.32059	153.81470	1375.23529	-527.06585	151.32823	1446.19141	-238.62076	178.41267	1225.58578	-308.38764	168.93343	1230.88989	-256.68375	182.86259	1302.83936	-66.95151	922.06017	18.78758 
